{"title":"Chololate.City.2015.SWESUB.AC3.DVDRip.XviD-Svennen","uid":12281755,"size":1465221120,"categoryP":"video","categoryS":"movies","magnet":"?xt=urn:btih:beba1b6c02d093e68d44e97de39c72fec6b6b245&amp;dn=Chololate.City.2015.SWESUB.AC3.DVDRip.XviD-Svennen&amp;tr=udp%3A%2F%2Ftracker.openbittorrent.com%3A80&amp;tr=udp%3A%2F%2Fopen.demonii.com%3A1337&amp;tr=udp%3A%2F%2Ftracker.coppersurfer.tk%3A6969&amp;tr=udp%3A%2F%2Fexodus.desync.com%3A6969","seeders":0,"leechers":0,"uploader":null,"files":1,"time":1440423615,"description":"Life for a struggling college student changes in an instant when he meets the owner of a male strip club who convinces him to give amateur night a whirl\n\nGeneral\nFormat                                   : AVI\nFormat/Info                              : Audio Video Interleave\nFile size                                : 1.36 GiB\nDuration                                 : 1h 30mn\nOverall bit rate                         : 2 157 Kbps\n\n\nVideo\nID                                       : 0\nFormat                                   : MPEG-4 Visual\nFormat profile                           : Advanced Simple@L5\nFormat settings, BVOP                    : 1\nFormat settings, QPel                    : No\nFormat settings, GMC                     : No warppoints\nFormat settings, Matrix                  : Default (MPEG)\nMuxing mode                              : Packed bitstream\nCodec ID                                 : XVID\nCodec ID/Hint                            : XviD\nDuration                                 : 1h 30mn\nBit rate                                 : 1 764 Kbps\nWidth                                    : 672 pixels\nHeight                                   : 272 pixels\nDisplay aspect ratio                     : 2.471\nFrame rate                               : 23.976 fps\nColor space                              : YUV\nChroma subsampling                       : 4:2:0\nBit depth                                : 8 bits\nScan type                                : Progressive\nCompression mode                         : Lossy\nBits/(Pixel*Frame)                       : 0.403\nStream size                              : 1.12 GiB (82%)\nWriting library                          : XviD 1.2.0.dev47 (UTC 2006-11-01)\n\nAudio\nID                                       : 1\nFormat                                   : AC-3\nFormat/Info                              : Audio Coding 3\nMode extension                           : CM (complete main)\nFormat settings, Endianness              : Big\nCodec ID                                 : 2000\nDuration                                 : 1h 30mn\nBit rate mode                            : Constant\nBit rate                                 : 384 Kbps\nChannel(s)                               : 6 channels\nChannel positions                        : Front: L C R, Side: L R, LFE\nSampling rate                            : 48.0 KHz\nBit depth                                : 16 bits\nCompression mode                         : Lossy\nStream size                              : 249 MiB (18%)\nAlignment                                : Split accross interleaves\nInterleave, duration                     : 42 ms (1.00 video frame)\nInterleave, preload duration             : 500 ms","torrent":{"xt":"urn:btih:beba1b6c02d093e68d44e97de39c72fec6b6b245","amp;dn":"Chololate.City.2015.SWESUB.AC3.DVDRip.XviD-Svennen","amp;tr":["udp%3A%2F%2Ftracker.openbittorrent.com%3A80","udp%3A%2F%2Fopen.demonii.com%3A1337","udp%3A%2F%2Ftracker.coppersurfer.tk%3A6969","udp%3A%2F%2Fexodus.desync.com%3A6969"],"infoHash":"beba1b6c02d093e68d44e97de39c72fec6b6b245","infoHashBuffer":{"type":"Buffer","data":[190,186,27,108,2,208,147,230,141,68,233,125,227,156,114,254,198,182,178,69]},"announce":[],"urlList":[]}}